# xmcd
#
# Track frame offsets: 
#        150
#        13280
#        24830
#        43937
#        57840
#        68915
#        81630
#        97872
#        109989
#        125122
#        151858
#
# Disc length: 2575 seconds
#
# Revision: 0
# Processed by: cddbd v1.5.2PL0 Copyright (c) Steve Scherf et al.
# Submitted via: ExactAudioCopy v0.99pb3
#
DISCID=920a0d0b
DTITLE=Doug Kershaw - Easu
DYEAR=1900
DGENRE=country
TTITLE0=make it easy on yourself
TTITLE1=on the bayou
TTITLE2=cajun capers
TTITLE3=go right on
TTITLE4=the country singer
TTITLE5=sing along
TTITLE6=i care
TTITLE7=do what you gotta do
TTITLE8=love city
TTITLE9=i might cry
TTITLE10=**BONUS VIDEO**
EXTD=
EXTT0=
EXTT1=
EXTT2=
EXTT3=
EXTT4=
EXTT5=
EXTT6=
EXTT7=
EXTT8=
EXTT9=
EXTT10=
PLAYORDER=
